# xmcd
# 
# Track frame offsets:
#     150
#     21768
#     43432
#     66752
#     84494
#     110312
#     130718
#     152113
# 
# Disc length: 2390
# 
# Revision: 2
# Processed by: cddbd v1.5.2PL0 Copyright (c) Steve Scherf et al.
# Submitted via: fre:ac v1.1beta1pre4
# 
DISCID=63095408
DTITLE=Wolfmother - Cosmic Egg [Disc 2]
DYEAR=2009
DGENRE=Rock
TTITLE0=Cosmonaut
TTITLE1=Pilgrim
TTITLE2=Eyes Open
TTITLE3=Back Round
TTITLE4=In the Castle
TTITLE5=Caroline
TTITLE6=Phoenix
TTITLE7=Violence of the Sun
EXTD=
EXTT0=
EXTT1=
EXTT2=
EXTT3=
EXTT4=
EXTT5=
EXTT6=
EXTT7=
PLAYORDER=
